<svg width="786" height="107" viewBox="0 0 786 107" fill="none" xmlns="http://www.w3.org/2000/svg">
<path d="M192.857 0H164.902V106.226H192.857V0Z" fill="white"/>
<path d="M642.92 0H614.966V106.226H642.92V0Z" fill="white"/>
<path d="M101.558 0C99.1817 0 96.9175 0.950443 95.2402 2.6277L78.272 19.568V22.3634L136.976 22.3075L136.92 0H101.558Z" fill="white"/>
<path d="M296.119 2.6277C294.442 0.950443 292.178 0 289.801 0H223.634V106.226H306.574C308.95 106.226 311.214 105.276 312.892 103.598L327.875 88.615C329.133 87.357 329.832 85.6518 329.832 83.8627V39.108C329.832 37.3189 329.133 35.6137 327.875 34.3558L296.119 2.6277ZM301.878 81.0673L299.082 83.8627H251.56L251.364 22.5032L299.082 22.3634L301.878 25.1588V81.0673Z" fill="white"/>
<path d="M433.095 2.6277C431.417 0.950443 429.153 0 426.777 0H388.564H377.55H360.609V106.226H388.564V83.9466L438.881 83.8907V106.226H466.836V40.0584C466.836 37.6823 465.885 35.418 464.208 33.7408L433.095 2.6277ZM414.254 61.5832C412.073 61.5832 410.005 62.3659 408.355 63.7916L388.508 81.1512V22.3634H436.03L438.825 25.1588V61.5832H414.254Z" fill="white"/>
<path d="M783.529 62.338L765.75 44.5591C764.073 42.8818 761.809 41.9314 759.433 41.9314H704.447L701.651 39.1359V25.1588V22.3634H779.923V0H727.369C725.189 0 723.12 0.782717 721.471 2.20838L701.623 19.568H673.669V25.1868C673.669 26.9758 674.368 28.6811 675.626 29.939L707.382 61.7509C709.059 63.4282 711.351 64.3786 713.727 64.3786L754.736 64.3227L757.532 67.1181V81.0953L754.736 83.8907H673.669V106.254H759.405C761.781 106.254 764.045 105.304 765.722 103.626L783.501 85.8475C784.759 84.5895 785.458 82.8843 785.458 81.0953V67.0902C785.486 65.3011 784.787 63.5959 783.529 62.338Z" fill="white"/>
<path d="M47.3545 2.6277C45.6772 0.950443 43.4129 0 41.0368 0H0V22.5032H50.3176L53.1131 25.1588V106.226H81.0673V40.0584C81.0673 37.6823 80.1169 35.418 78.4396 33.7408L47.3545 2.6277Z" fill="white"/>
<path d="M525.511 81.0673V0H497.557V66.1677C497.557 68.5438 498.508 70.8081 500.185 72.4854L531.298 103.598C532.975 105.276 535.239 106.226 537.616 106.226H586.843L587.011 83.8627H528.307L525.511 81.0673Z" fill="white"/>
</svg>
